<svg xmlns="http://www.w3.org/2000/svg" width="928" height="500"><g class="court"><rect x="22.93617021276596" y="-7.000000000000021" width="902.127659574468" height="504.00000000000006" fill="#dfbb85" stroke="none" stroke-width="2"/><rect x="50" y="20" width="848" height="450" fill="none" stroke="white" stroke-width="2"/><g><line x1="474" y1="470" x2="474" y2="20" stroke="white" stroke-width="2"/><circle cx="474" cy="245" r="54.12765957446808" fill="none" stroke="white" stroke-width="2"/><rect x="50" y="172.99999999999997" width="171.40425531914894" height="144.00000000000006" fill="#981717" stroke="white" stroke-width="2"/><path transform="translate(221.40425531914894,245)" d="M0,-54.128A54.128,54.128,0,1,1,0,54.128A54.128,54.128,0,1,0,0,-54.128Z" fill="none" stroke="white" stroke-width="2"/><path transform="translate(221.40425531914894,245)" d="M0,-54.128A54.128,54.128,0,1,0,0,54.128A54.128,54.128,0,1,1,0,-54.128Z" fill="none" stroke="white" stroke-dasharray="4 4" stroke-width="2"/><circle cx="92.85106382978724" cy="245" r="6.765957446808507" fill="none" stroke="white" stroke-width="2"/><line x1="81.57446808510639" y1="278.75" x2="81.57446808510639" y2="211.25000000000003" stroke="white" stroke-width="2"/><path transform="translate(92.85106382978724, 245)" d="M0,-38.34A38.34,38.34,0,1,1,0,38.34A38.34,38.34,0,1,0,0,-38.34Z" fill="none" stroke="white" stroke-width="2"/><path transform="translate(92.85106382978724, 245)" d="M80.72,-198.468A214.255,214.255,0,0,1,80.72,198.468A214.255,214.255,0,0,0,80.72,-198.468Z" fill="none" stroke="white" stroke-width="2"/><line x1="50" y1="47.00000000000002" x2="176.29787234042553" y2="47.00000000000002" stroke="white" stroke-width="2"/><line x1="50" y1="442.99999999999994" x2="176.29787234042553" y2="442.99999999999994" stroke="white" stroke-width="2"/></g><g transform="translate(948,0) scale(-1,1)"><line x1="474" y1="470" x2="474" y2="20" stroke="white" stroke-width="2"/><circle cx="474" cy="245" r="54.12765957446808" fill="none" stroke="white" stroke-width="2"/><rect x="50" y="172.99999999999997" width="171.40425531914894" height="144.00000000000006" fill="#981717" stroke="white" stroke-width="2"/><path transform="translate(221.40425531914894,245)" d="M0,-54.128A54.128,54.128,0,1,1,0,54.128A54.128,54.128,0,1,0,0,-54.128Z" fill="none" stroke="white" stroke-width="2"/><path transform="translate(221.40425531914894,245)" d="M0,-54.128A54.128,54.128,0,1,0,0,54.128A54.128,54.128,0,1,1,0,-54.128Z" fill="none" stroke="white" stroke-dasharray="4 4" stroke-width="2"/><circle cx="92.85106382978724" cy="245" r="6.765957446808507" fill="none" stroke="white" stroke-width="2"/><line x1="81.57446808510639" y1="278.75" x2="81.57446808510639" y2="211.25000000000003" stroke="white" stroke-width="2"/><path transform="translate(92.85106382978724, 245)" d="M0,-38.34A38.34,38.34,0,1,1,0,38.34A38.34,38.34,0,1,0,0,-38.34Z" fill="none" stroke="white" stroke-width="2"/><path transform="translate(92.85106382978724, 245)" d="M80.72,-198.468A214.255,214.255,0,0,1,80.72,198.468A214.255,214.255,0,0,0,80.72,-198.468Z" fill="none" stroke="white" stroke-width="2"/><line x1="50" y1="47.00000000000002" x2="176.29787234042553" y2="47.00000000000002" stroke="white" stroke-width="2"/><line x1="50" y1="442.99999999999994" x2="176.29787234042553" y2="442.99999999999994" stroke="white" stroke-width="2"/></g></g></svg>